# xmcd
#
# Track frame offsets:
#	183
#	11250
#	19695
#	31728
#	43953
#	55333
#	68270
#	81308
#	95623
#	105638
#	114210
#
# Disc length: 1676 seconds
#
# Revision: 0
# Processed by: cddbd v1.4PL0 Copyright (c) Steve Scherf et al.
# Submitted via: dBpowerAMP V4.0
#
DISCID=7b068a0b
DTITLE=Ray Lynham and Philomena Begley - We Love To Sing
DYEAR=1900
DGENRE=Country
TTITLE0=You and Me Her and Him
TTITLE1=All These Little Things
TTITLE2=We've Run Out Of Tomorrows
TTITLE3=We Go Together
TTITLE4=Seeing Eye To Eye
TTITLE5=That's When My Baby Sings His Song
TTITLE6=Mr and Mrs Used To Be
TTITLE7=Daddy Was An Old Time Preacher Man
TTITLE8=Anything's Better Than Nothing
TTITLE9=We Love To Sing About Jesus
TTITLE10=Silver Sandals
EXTD=Irish Artists
EXTT0=
EXTT1=
EXTT2=
EXTT3=
EXTT4=
EXTT5=
EXTT6=
EXTT7=
EXTT8=
EXTT9=
EXTT10=
PLAYORDER=
